<svg width="238" height="51" viewBox="0 0 238 51" fill="none" xmlns="http://www.w3.org/2000/svg">
<path fill-rule="evenodd" clip-rule="evenodd" d="M1.60724 1.94939L3.89038 1.44202L7.78018 1.35746L10.5707 0.850097L11.4163 0.765536L13.1075 0.511854L14.3759 0.258172L15.3061 0.0890503L15.9826 0.511854H16.4899L18.604 1.01922L18.7731 1.2729L18.9422 1.6957V2.37219L19.0268 2.71043L18.8576 4.65533L18.1812 5.50094L18.3503 6.09286V6.60023V7.10759L21.3099 8.03776L23.593 8.96793L25.1997 9.72898L27.2292 10.9974L29.766 12.604L32.5565 14.8026L34.5098 16.5784L33.6558 14.9717L33.4021 14.2953L33.5712 13.3651L33.9095 12.0967L34.1631 11.2511L34.8396 10.7437L35.4403 10.4055L36.3617 10.2363L36.9536 10.3209L37.461 10.6591L38.2221 10.7437H39.0677L40.928 11.2511L41.3508 11.7584L40.7589 11.4202L39.1522 10.9974H38.0529H37.5456L36.7 10.49L35.9389 10.9974L34.9242 11.6739V12.3504L35.0087 13.5342L36.0235 15.31L36.8691 15.6482L38.814 16.3247L39.9133 16.5784L40.167 17.0012L40.6743 16.9166L41.1817 17.3394L42.1118 17.0012L42.8729 17.6777L43.6339 17.5086L44.1413 18.0159L45.9171 18.6079L46.8473 18.6924L47.6929 19.2843L48.9613 19.7071L50.0606 20.5528L50.5679 21.0601L51.4981 22.8359L51.5827 23.3433L51.0753 24.1889L51.1599 24.8654L50.5679 26.3029L49.0458 27.6559L47.5237 28.4169L46.3399 28.586L45.8325 28.3323H45.659L46.1708 28.7551L47.6083 30.0236L48.2002 30.5309L50.2297 31.9685L52.09 32.8986L53.443 34.3805L53.7812 33.9979L57.1637 33.9134L57.7556 33.7442L58.5166 33.4906L58.9394 33.3214L59.1086 33.4906L59.4468 33.7442L59.7005 33.9134L61.3917 33.6597L60.7998 34.9281L60.1233 35.4354H59.5314L59.1086 35.0126L58.8549 33.9134L58.5166 34.167L58.1784 34.759H57.7556L54.204 35.2886L55.4725 36.9575L55.7298 37.3803L56.6563 38.9024L57.2482 40.4245V42.0654L56.8254 43.3842L55.4725 45.1599L55.1342 45.3291L55.8107 43.9761L56.1489 42.454L55.557 40.5091L55.255 39.6635L53.2739 40.1708L51.7518 40.0863L50.1451 39.0716L49.5532 38.9024L50.4834 40.0863L51.1599 40.5091L51.4981 41.101L51.6672 41.4393L52.1746 41.3547L52.4283 41.7775V42.0654L52.9356 42.454L53.3584 42.7922L53.6967 43.215L53.5276 43.4687H53.9504L53.6967 44.1452L54.0349 44.4834L54.5423 45.0754L54.0349 45.7519L52.9356 48.1196L53.0202 50.149L52.5128 48.8806L52.7665 47.3585L52.9356 45.6673L51.5827 43.215L50.3142 42.1157L47.6929 39.6635L46.4244 38.1414L44.8178 36.0274L44.2259 35.0972L45.2406 37.4649L45.4097 38.0568L45.4943 39.0716L46.7627 41.2701H46.9318L47.0164 41.6929H47.2701V42.3694L48.5385 43.4687L49.3841 44.3989L50.2297 45.1599L51.5827 46.5129L51.9209 48.5424L50.9062 46.5129L48.1157 45.5827L46.509 43.9761L44.4795 41.9466L42.0273 39.748L41.0126 38.5642L41.1817 37.2112L41.3508 35.3509V33.8288L41.1817 32.8986L40.4206 31.5457L38.2221 29.7699L37.8838 29.6008L37.0382 29.2625L36.4463 28.9243L35.9389 28.3323L34.9242 27.4022L33.7403 27.1485L31.7954 27.3176L23.9313 23.4278L16.0671 18.1005L14.545 16.2402L11.5009 12.604L10.2324 13.5342L8.3721 14.5489L7.18825 14.9717L4.56687 15.4791L3.97494 16.071H3.29846L1.60724 16.2402L0.846194 15.8174L0.507951 15.31L0.254269 15.0563L0.169708 14.6335V10.4055L0.592512 9.30617L0.846194 6.26199L0.761634 6.09286L0.592512 4.40165V3.97885V2.62587L1.60724 1.94939ZM53.6967 37.2112L52.1746 35.7737L51.8363 35.2663L48.8767 34.167L48.2848 34.759L50.737 37.0421L51.8363 37.7186H54.0417L53.6967 37.2112ZM39.1522 20.6373L38.0529 19.7917L35.4403 17.424L36.1926 17.6777L37.2073 17.7622L38.0529 18.0159L39.0677 18.3542L40.3361 18.6079L41.4354 18.9461L42.4501 19.2843L43.9722 19.7917L45.5788 20.5528L46.9318 21.0601L48.2002 21.9057L48.8767 22.8359L49.215 23.9352L48.8767 24.4425L48.2002 25.119L46.5936 25.4573L45.4097 25.2882L43.9722 24.8654L42.8729 23.9352L42.0273 23.3433L40.928 22.4977L39.9133 21.652L39.4905 21.3984L39.575 21.2292L39.9978 20.8064L39.1522 20.6373Z" fill="#DDE0EF"/>
<path d="M56.6563 38.9024L56.7409 39.1199L58.3475 38.3951L59.3622 38.3105L60.7998 38.9024L61.3071 38.987L64.1822 41.101L64.3513 41.5238H64.7741L64.605 40.0017L63.5903 39.1561L62.7447 38.3951L61.9836 37.9723L60.9689 37.5495L60.377 37.3803L59.5314 37.2112H58.8549L58.6858 36.7884L58.3475 36.873L58.1784 37.1267H57.7556V36.9575L57.671 36.7884L57.2482 36.873L57.1637 37.2112L56.8254 37.1267V36.7884H56.6563L56.3181 37.1267L55.7298 37.3803L56.6563 38.9024Z" fill="#DDE0EF"/>
<path d="M57.2482 40.6782V42.0654L56.8254 43.3842L59.024 45.2445L59.6159 45.6673L60.5461 45.5827L61.7299 45.6673L63.252 44.9908L64.6896 43.1305L64.8587 42.6231L64.0976 43.2996L62.9138 43.9761L62.1964 44.568H60.377L59.4468 44.0606L58.6012 43.1305L57.2482 40.6782Z" fill="#DDE0EF"/>
<path d="M35.4403 17.424L35.347 17.3394L34.5098 16.5784M35.4403 17.424L38.0529 19.7917L39.1522 20.6373L39.9978 20.8064L39.575 21.2292L39.4905 21.3984L39.9133 21.652L40.928 22.4977L42.0273 23.3433L42.8729 23.9352L43.9722 24.8654L45.4097 25.2882L46.5936 25.4573L48.2002 25.119L48.8767 24.4425L49.215 23.9352L48.8767 22.8359L48.2002 21.9057L46.9318 21.0601L45.5788 20.5528L43.9722 19.7917L42.4501 19.2843L41.4354 18.9461L40.3361 18.6079L39.0677 18.3542L38.0529 18.0159L37.2073 17.7622L36.1926 17.6777L35.4403 17.424ZM34.5098 16.5784L32.5565 14.8026L29.766 12.604L27.2292 10.9974L25.1997 9.72898L23.593 8.96793L21.3099 8.03776L18.3503 7.10759V6.60023V6.09286L18.1812 5.50094L18.8576 4.65533L19.0268 2.71043L18.9422 2.37219V1.6957L18.7731 1.2729L18.604 1.01922L16.4899 0.511854H15.9826L15.3061 0.0890503L14.3759 0.258172L13.1075 0.511854L11.4163 0.765536L10.5707 0.850097L7.78018 1.35746L3.89038 1.44202L1.60724 1.94939L0.592512 2.62587V3.97885V4.40165L0.761634 6.09286L0.846194 6.26199L0.592512 9.30617L0.169708 10.4055V14.6335L0.254269 15.0563L0.507951 15.31L0.846194 15.8174L1.60724 16.2402L3.29846 16.071H3.97494L4.56687 15.4791L7.18825 14.9717L8.3721 14.5489L10.2324 13.5342L11.5009 12.604L14.545 16.2402L16.0671 18.1005L23.9313 23.4278L31.7954 27.3176L33.7403 27.1485L34.9242 27.4022L35.9389 28.3323L36.4463 28.9243L37.0382 29.2625L37.8838 29.6008L38.2221 29.7699L40.4206 31.5457L41.1817 32.8986L41.3508 33.8288V35.3509L41.1817 37.2112L41.0126 38.5642L42.0273 39.748L44.4796 41.9466L46.509 43.9761L48.1157 45.5827L50.9062 46.5129L51.9209 48.5424L51.5827 46.5129L50.2297 45.1599L49.3841 44.3989L48.5385 43.4687L47.2701 42.3694V41.6929H47.0164L46.9318 41.2701H46.7627L45.4943 39.0716L45.4097 38.0568L45.2406 37.4649L44.2259 35.0972L44.8178 36.0274L46.4244 38.1414L47.6929 39.6635L50.3142 42.1157L51.5827 43.215L52.9356 45.6673L52.7665 47.3585L52.5128 48.8806L53.0202 50.149L52.9356 48.1196L54.0349 45.7519L54.5423 45.0754L54.0349 44.4834L53.6967 44.1452L53.9504 43.4687H53.5276L53.6967 43.215L53.3584 42.7922L52.9356 42.454L52.4283 42.0654V41.7775L52.1746 41.3547L51.6672 41.4393L51.4981 41.101L51.1599 40.5091L50.4834 40.0863L49.5532 38.9024L50.1451 39.0716L51.7518 40.0863L53.2739 40.1709L55.255 39.6635M34.5098 16.5784L33.6558 14.9717L33.4021 14.2953L33.5712 13.3651L33.9095 12.0967L34.1631 11.2511L34.8396 10.7437L35.4403 10.4055L36.3617 10.2363L36.9536 10.3209L37.461 10.6591L38.2221 10.7437H39.0677L40.928 11.2511L41.3508 11.7584L40.7589 11.4202L39.1522 10.9974H38.0529H37.5456L36.7 10.49L35.9389 10.9974L34.9242 11.6739V12.3504L35.0087 13.5342L36.0235 15.31L36.8691 15.6482L38.814 16.3247L39.9133 16.5784L40.167 17.0012L40.6743 16.9166L41.1817 17.3394L42.1118 17.0012L42.8729 17.6777L43.6339 17.5086L44.1413 18.0159L45.9171 18.6079L46.8473 18.6924L47.6929 19.2843L48.9613 19.7071L50.0606 20.5528L50.5679 21.0601L51.4981 22.8359L51.5827 23.3433L51.0753 24.1889L51.1599 24.8654L50.5679 26.3029L49.0458 27.6559L47.5237 28.4169L46.3399 28.586L45.8325 28.3323H45.659M55.4724 36.9575L53.8658 34.8435L53.443 34.3805M55.4724 36.9575L55.7298 37.3803M55.4724 36.9575L54.204 35.2886L57.7556 34.759H58.1784L58.5166 34.167L58.8549 33.9134L59.1086 35.0126L59.5314 35.4354H60.1233L60.7998 34.9281L61.3917 33.6597L59.7005 33.9134L59.4468 33.7442L59.1086 33.4906L58.9394 33.3214L58.5166 33.4906L57.7556 33.7442L57.1637 33.9134L53.7812 33.9979L53.443 34.3805M56.6563 38.9024L57.2482 40.4245V42.0654M56.6563 38.9024L55.7298 37.3803M56.6563 38.9024L56.7409 39.1199L58.3475 38.3951L59.3622 38.3105L60.7998 38.9024L61.3071 38.987L64.1822 41.101L64.3513 41.5238H64.7741L64.605 40.0017L63.5903 39.1561L62.7447 38.3951L61.9836 37.9723L60.9689 37.5495L60.377 37.3803L59.5314 37.2112H58.8549L58.6858 36.7884L58.3475 36.873L58.1784 37.1267H57.7556V36.9575L57.671 36.7884L57.2482 36.873L57.1637 37.2112L56.8254 37.1267V36.7884H56.6563L56.3181 37.1267L55.7298 37.3803M57.2482 42.0654L56.8254 43.3842M57.2482 42.0654V40.6782L58.6012 43.1305L59.4468 44.0606L60.377 44.568H62.1964L62.9138 43.9761L64.0976 43.2996L64.8587 42.6231L64.6896 43.1305L63.252 44.9908L61.7299 45.6673L60.5461 45.5827L59.6159 45.6673L59.024 45.2445L56.8254 43.3842M56.8254 43.3842L55.4724 45.1599L55.1342 45.3291L55.8107 43.9761L56.1489 42.454L55.557 40.5091L55.255 39.6635M54.0417 37.7186L55.1342 39.3252L55.255 39.6635M54.0417 37.7186L53.6967 37.2112L52.1746 35.7737L51.8363 35.2663L48.8767 34.167L48.2848 34.759L50.737 37.0421L51.8363 37.7186H54.0417ZM53.443 34.3805L52.09 32.8986L50.2297 31.9685L48.2002 30.5309L47.6083 30.0236L46.1708 28.7551L45.659 28.3323M45.659 28.3323L44.2259 27.1485L45.5788 28.3323H45.659Z" stroke="#DDE0EF" stroke-width="0.169122"/>
<path d="M1.52254 2.87939L2.19902 3.13308L3.12919 3.38676L7.8646 6.26183L10.0632 9.22145L11.7544 13.7877L10.9088 14.3797L9.80949 14.0414L9.21757 14.6333H8.03372L9.80949 13.0267L7.18811 10.4053L8.2874 12.773L5.66602 10.5744V9.47513L4.73585 7.86848L2.53727 4.99341L1.52254 2.87939Z" fill="#AE8F7D"/>
<path d="M1.52254 2.87939L2.19902 3.13308L3.12919 3.38676L7.8646 6.26183L10.0632 9.22145L11.7544 13.7877L10.9088 14.3797L9.80949 14.0414L9.21757 14.6333H8.03372L9.80949 13.0267L7.18811 10.4053L8.2874 12.773L5.66602 10.5744V9.47513L4.73585 7.86848L2.53727 4.99341L1.52254 2.87939Z" fill="url(#paint0_linear_149_147)" fill-opacity="0.8"/>
<path d="M12.684 7.8686L10.3163 5.5009L12.1766 6.60019L11.331 5.07809L12.5149 5.5009L15.5591 6.17739L17.8422 6.60019L19.1952 7.02299L21.1401 7.8686L23.1695 8.96789L31.7947 14.9717L31.2874 16.4092L30.8646 15.9864L29.3425 17.3394H27.9049L28.3277 18.185L24.5225 17.3394L25.2836 18.185L20.971 15.1408H21.4783L20.1253 14.0415H21.1401L17.8422 12.5194L17.1657 13.2805L14.2907 11.3356L12.684 9.8135H13.445L13.1068 9.30613H13.6987L12.684 7.8686Z" fill="#CAB9C1"/>
<path d="M12.684 7.8686L10.3163 5.5009L12.1766 6.60019L11.331 5.07809L12.5149 5.5009L15.5591 6.17739L17.8422 6.60019L19.1952 7.02299L21.1401 7.8686L23.1695 8.96789L31.7947 14.9717L31.2874 16.4092L30.8646 15.9864L29.3425 17.3394H27.9049L28.3277 18.185L24.5225 17.3394L25.2836 18.185L20.971 15.1408H21.4783L20.1253 14.0415H21.1401L17.8422 12.5194L17.1657 13.2805L14.2907 11.3356L12.684 9.8135H13.445L13.1068 9.30613H13.6987L12.684 7.8686Z" fill="url(#paint1_linear_149_147)"/>
<path d="M10.3163 3.1332L7.52579 1.6111L6.59562 2.03391L5.32721 2.11847L3.63599 1.44198H5.07353L5.91914 1.10374L8.03315 0.934618L9.38613 0.596375L11.5001 0.765496L9.80893 1.44198L10.9082 2.11847L13.8678 2.37215L13.7833 3.04864L11.331 3.1332V3.80968L10.3163 3.1332Z" fill="#CAB9C1"/>
<path d="M10.3163 3.1332L7.52579 1.6111L6.59562 2.03391L5.32721 2.11847L3.63599 1.44198H5.07353L5.91914 1.10374L8.03315 0.934618L9.38613 0.596375L11.5001 0.765496L9.80893 1.44198L10.9082 2.11847L13.8678 2.37215L13.7833 3.04864L11.331 3.1332V3.80968L10.3163 3.1332Z" fill="url(#paint2_linear_149_147)"/>
<path d="M0.760928 7.53036V6.00826L1.94478 6.51563L3.46687 7.4458L5.07353 8.96789V10.4054L3.80512 11.6738H1.52198L0.0844421 13.3651L0.338124 10.7437L0.760928 10.9973L1.52198 10.2363L1.77566 8.37597L1.18373 7.02299L0.760928 7.53036Z" fill="#CAB9C1"/>
<path d="M0.760928 7.53036V6.00826L1.94478 6.51563L3.46687 7.4458L5.07353 8.96789V10.4054L3.80512 11.6738H1.52198L0.0844421 13.3651L0.338124 10.7437L0.760928 10.9973L1.52198 10.2363L1.77566 8.37597L1.18373 7.02299L0.760928 7.53036Z" fill="url(#paint3_linear_149_147)"/>
<path d="M7.86524 6.68471L5.32841 4.90893L2.28423 3.13316H3.97544L4.48281 3.55596V2.62579L5.32841 4.06333L8.11892 6.00822L9.21821 7.44576L11.5859 8.96785V11.0819L12.6006 12.8576L13.108 14.1261L15.0529 16.2401L18.7736 19.4534L21.395 21.2292L25.0311 23.0049L28.8363 24.7807L31.7959 26.3028L32.7261 25.88V26.7256L32.0496 27.5712L32.3033 27.994H31.7959L30.9503 27.5712L27.3142 25.88L23.7627 24.2734L20.2957 22.0748L15.7294 18.4387L12.6006 14.9717L10.994 12.4348L8.96453 8.46049L7.86524 6.68471Z" fill="#B5B5BF"/>
<path d="M7.86524 6.68471L5.32841 4.90893L2.28423 3.13316H3.97544L4.48281 3.55596V2.62579L5.32841 4.06333L8.11892 6.00822L9.21821 7.44576L11.5859 8.96785V11.0819L12.6006 12.8576L13.108 14.1261L15.0529 16.2401L18.7736 19.4534L21.395 21.2292L25.0311 23.0049L28.8363 24.7807L31.7959 26.3028L32.7261 25.88V26.7256L32.0496 27.5712L32.3033 27.994H31.7959L30.9503 27.5712L27.3142 25.88L23.7627 24.2734L20.2957 22.0748L15.7294 18.4387L12.6006 14.9717L10.994 12.4348L8.96453 8.46049L7.86524 6.68471Z" fill="url(#paint4_linear_149_147)"/>
<path d="M34.0784 23.9353L32.81 25.7957V26.6413L32.1335 27.5714L32.3872 28.0788L33.1482 28.417L33.7401 28.2479L34.4166 27.5714H34.7549L36.1078 28.5862L35.8541 28.0788L35.7696 27.1486L36.1924 26.8949L36.8689 26.4721L36.1924 25.9648L35.685 25.8802L34.8394 27.1486L34.5857 26.9795L34.5012 26.3876L35.0931 25.2883L35.2622 24.189L34.5857 23.5125L34.0784 23.9353Z" fill="#826E6D"/>
<path d="M34.0784 23.9353L32.81 25.7957V26.6413L32.1335 27.5714L32.3872 28.0788L33.1482 28.417L33.7401 28.2479L34.4166 27.5714H34.7549L36.1078 28.5862L35.8541 28.0788L35.7696 27.1486L36.1924 26.8949L36.8689 26.4721L36.1924 25.9648L35.685 25.8802L34.8394 27.1486L34.5857 26.9795L34.5012 26.3876L35.0931 25.2883L35.2622 24.189L34.5857 23.5125L34.0784 23.9353Z" fill="url(#paint5_linear_149_147)" fill-opacity="0.9"/>
<path d="M35.7709 23.5125L34.8408 22.7514L35.94 20.8911L37.6313 20.6374L38.5614 20.8911L38.2232 22.0749L39.0688 21.0602L39.9144 20.8911L39.6607 21.483L38.7306 21.9904L38.3078 22.836H39.0688H39.6607L39.1534 23.7661L38.5614 24.3581L37.6313 23.7661L36.3629 23.1742L35.7709 23.5125Z" fill="#B8AAA9"/>
<path d="M35.7709 23.5125L34.8408 22.7514L35.94 20.8911L37.6313 20.6374L38.5614 20.8911L38.2232 22.0749L39.0688 21.0602L39.9144 20.8911L39.6607 21.483L38.7306 21.9904L38.3078 22.836H39.0688H39.6607L39.1534 23.7661L38.5614 24.3581L37.6313 23.7661L36.3629 23.1742L35.7709 23.5125Z" fill="url(#paint6_linear_149_147)" fill-opacity="0.9"/>
<path d="M45.3245 37.5498L44.3943 36.1123L44.4788 37.127L45.0708 37.719L45.3245 37.5498Z" fill="#9C898C"/>
<path d="M45.2399 39.7484V38.48L45.6627 39.2411L45.9164 39.833L46.2546 40.2558L46.5083 41.186L45.9164 40.7632L45.7473 39.833L45.2399 39.7484Z" fill="#9C898C"/>
<path d="M50.3135 35.2667L51.6665 35.3513L51.8356 35.6895L50.3135 35.2667Z" fill="#9C898C"/>
<path d="M57.3321 41.4396L56.9938 40.4249H57.0784L57.163 40.594L57.3321 41.4396Z" fill="#9C898C"/>
<path d="M56.9093 43.5537L56.9938 42.6235L57.5858 43.9765L59.0233 45.2449L58.1777 44.9912L56.9093 43.5537Z" fill="#9C898C"/>
<path d="M61.5601 39.7484L60.9682 38.9874L61.8984 38.8183L62.6594 39.4947L63.505 40.0867L63.8433 41.0168H63.1668L62.9977 40.5095L62.4057 40.4249L62.2366 39.833L61.5601 39.7484Z" fill="#9C898C"/>
<path d="M64.1815 41.4396L64.5198 41.5242L64.6043 42.4544L64.1815 42.2007V41.4396Z" fill="#9C898C"/>
<path d="M63.1668 44.9066L64.4352 43.3L64.5198 43.8919L63.1668 44.9066Z" fill="#9C898C"/>
<path d="M35.008 11.5897L36.6993 10.575L37.2417 10.8763L37.962 10.9682L38.8978 10.9132L39.2673 11.1349L40.8427 11.336L39.7434 11.4206L39.2673 11.1349L37.962 10.9682L37.4603 10.9978L37.2417 10.8763L36.8684 10.8286L35.8536 11.4206L35.008 11.5897Z" fill="#9C898C"/>
<path d="M40.8429 28.9246L39.9973 28.6709L41.012 29.7702L41.1811 30.4467L41.6885 31.7996L42.4496 32.9835L42.8724 34.6747L43.2106 36.1968L44.2253 37.8034L43.6334 36.2814L43.3797 34.6747L42.8724 32.8989L41.6885 30.7003L41.4348 29.8547L40.8429 28.9246Z" fill="#F2F6FF"/>
<path d="M45.7474 41.9469L44.1408 38.5645L46.0011 41.7778L47.4386 44.3146L43.9717 40.3403L45.7474 41.9469Z" fill="#F2F6FF"/>
<path d="M46.0857 36.1968L44.8173 34.8438H45.3246L44.7327 33.9137L45.7474 34.5901L46.5085 35.6049L45.832 35.1821L46.0857 36.1968Z" fill="#F2F6FF"/>
<path d="M47.6923 38.9027L46.7622 37.5498L46.6776 37.2115H46.8467L47.7769 37.9726L47.2695 37.888L47.6923 38.9027Z" fill="#F2F6FF"/>
<path d="M51.8358 42.3697L50.9902 41.8624L50.8211 41.4396L51.1593 41.5241L51.8358 42.3697Z" fill="#F2F6FF"/>
<path d="M48.2843 44.6529L48.1151 44.2301L48.5379 44.6529H48.2843Z" fill="#F2F6FF"/>
<path d="M54.0344 35.6049L50.8211 33.3217L51.3284 33.4063L50.9902 32.7298L54.0344 35.6049Z" fill="#F2F6FF"/>
<path d="M45.3246 28.84L46.0857 29.7702L44.8173 28.8189L45.3246 28.84Z" fill="#F2F6FF"/>
<path d="M45.7474 28.9246L43.8871 27.6562L45.5783 28.5018L48.7071 31.1231L45.7474 28.9246Z" fill="#F2F6FF"/>
<path d="M45.3246 26.8105L43.5489 26.0495L42.9569 25.6267L45.2401 26.4723L46.0011 26.8105H45.3246Z" fill="#F2F6FF"/>
<path d="M47.8615 27.0642L47.3541 27.1488L46.9313 27.0642L47.8615 26.6414L48.8762 26.0495L47.8615 27.0642Z" fill="#F2F6FF"/>
<path d="M38.8134 25.373L38.7289 24.9502H38.8134L39.3208 25.1193V25.373H38.8134Z" fill="#F2F6FF"/>
<path d="M41.604 35.2666L41.5194 33.9137L42.0268 33.9982V34.421L41.7731 34.6747L41.604 35.2666Z" fill="#F2F6FF"/>
<path d="M41.2657 38.4799L41.3503 37.5498L41.6885 38.9873L41.2657 38.4799Z" fill="#F2F6FF"/>
<path d="M47.7769 35.1821L47.3541 34.9284H47.7769V35.1821Z" fill="#F2F6FF"/>
<path d="M49.2144 37.2115L48.0306 35.6049L49.3835 36.8733L50.5674 37.7189L51.8358 38.3954L50.9902 38.3108L49.2144 37.2115Z" fill="#F2F6FF"/>
<path d="M19.2799 14.4647L18.0115 13.2808L19.2799 14.0419L20.9711 16.2404L17.4196 13.7036L19.2799 14.4647Z" fill="#F2F6FF"/>
<path d="M44.7327 28.7554L44.8173 28.8189M44.8173 28.8189L46.0857 29.7702L45.3246 28.84L44.8173 28.8189ZM39.9973 28.6709L40.8429 28.9246L41.4348 29.8547L41.6885 30.7003L42.8724 32.8989L43.3797 34.6747L43.6334 36.2814L44.2253 37.8034L43.2106 36.1968L42.8724 34.6747L42.4496 32.9835L41.6885 31.7996L41.1811 30.4467L41.012 29.7702L39.9973 28.6709ZM44.1408 38.5645L45.7474 41.9469L43.9717 40.3403L47.4386 44.3146L46.0011 41.7778L44.1408 38.5645ZM44.8173 34.8438L46.0857 36.1968L45.832 35.1821L46.5085 35.6049L45.7474 34.5901L44.7327 33.9136L45.3246 34.8438H44.8173ZM46.7622 37.5498L47.6923 38.9027L47.2695 37.888L47.7769 37.9726L46.8467 37.2115H46.6776L46.7622 37.5498ZM50.9902 41.8624L51.8358 42.3697L51.1593 41.5241L50.8211 41.4396L50.9902 41.8624ZM48.1151 44.2301L48.2843 44.6529H48.5379L48.1151 44.2301ZM50.8211 33.3217L54.0344 35.6049L50.9902 32.7298L51.3284 33.4063L50.8211 33.3217ZM43.8871 27.6562L45.7474 28.9246L48.7071 31.1231L45.5783 28.5018L43.8871 27.6562ZM43.5489 26.0495L45.3246 26.8105H46.0011L45.2401 26.4723L42.9569 25.6267L43.5489 26.0495ZM47.3541 27.1488L47.8614 27.0642L48.8762 26.0495L47.8614 26.6414L46.9313 27.0642L47.3541 27.1488ZM38.7289 24.9502L38.8134 25.373H39.3208V25.1193L38.8134 24.9502H38.7289ZM41.5194 33.9136L41.604 35.2666L41.7731 34.6747L42.0268 34.421V33.9982L41.5194 33.9136ZM41.3503 37.5498L41.2657 38.4799L41.6885 38.9873L41.3503 37.5498ZM47.3541 34.9284L47.7769 35.1821V34.9284H47.3541ZM48.0306 35.6049L49.2144 37.2115L50.9902 38.3108L51.8358 38.3954L50.5674 37.7189L49.3835 36.8733L48.0306 35.6049ZM18.0115 13.2808L19.2799 14.4647L17.4196 13.7036L20.9711 16.2404L19.2799 14.0419L18.0115 13.2808Z" stroke="#F2F6FF" stroke-width="0.169122"/>
<path d="M16.4048 0.5967L16.743 0.343018L17.6732 0.5967H18.6034L18.7725 1.18863L18.2651 1.27319L18.1806 1.78055L16.4048 0.5967Z" fill="#E4C9D8"/>
<path d="M16.4048 0.5967L16.743 0.343018L17.6732 0.5967H18.6034L18.7725 1.18863L18.2651 1.27319L18.1806 1.78055L16.4048 0.5967Z" fill="url(#paint7_linear_149_147)" fill-opacity="0.2"/>
<path d="M18.096 3.21808L19.0262 2.79528V4.40193L18.4342 5.41666L18.3497 6.09315L17.4195 5.58578V4.99386L18.2651 4.9093L18.7725 4.31737L18.6879 3.64089L18.5188 4.14825L18.096 3.21808Z" fill="#E4C9D8"/>
<path d="M18.096 3.21808L19.0262 2.79528V4.40193L18.4342 5.41666L18.3497 6.09315L17.4195 5.58578V4.99386L18.2651 4.9093L18.7725 4.31737L18.6879 3.64089L18.5188 4.14825L18.096 3.21808Z" fill="url(#paint8_linear_149_147)" fill-opacity="0.2"/>
<path d="M6.00381 14.7183L7.35679 14.8029L7.18766 15.0566L6.2575 15.1412L5.32733 15.6485L4.7354 15.7331L4.05892 15.9868L4.39716 15.3103H5.15821L6.00381 14.7183Z" fill="#E4C9D8"/>
<path d="M6.00381 14.7183L7.35679 14.8029L7.18766 15.0566L6.2575 15.1412L5.32733 15.6485L4.7354 15.7331L4.05892 15.9868L4.39716 15.3103H5.15821L6.00381 14.7183Z" fill="url(#paint9_linear_149_147)" fill-opacity="0.2"/>
<path d="M0.253682 14.8029L0 13.6191L1.52209 11.7587L0.422804 13.7036L0.253682 14.8029Z" fill="#E4C9D8"/>
<path d="M0.253682 14.8029L0 13.6191L1.52209 11.7587L0.422804 13.7036L0.253682 14.8029Z" fill="url(#paint10_linear_149_147)" fill-opacity="0.2"/>
<path d="M0.845608 15.8176L0.854381 15.8239L1.18385 15.9022L1.9449 16.1559L3.38243 15.9868L2.28314 16.2404H1.43753L0.854381 15.8239L0.82801 15.8176H0.845608Z" fill="#E4C9D8"/>
<path d="M0.845608 15.8176L0.854381 15.8239L1.18385 15.9022L1.9449 16.1559L3.38243 15.9868L2.28314 16.2404H1.43753L0.854381 15.8239L0.82801 15.8176H0.845608Z" fill="url(#paint11_linear_149_147)" fill-opacity="0.2"/>
<path d="M1.09929 2.11879L0.845608 2.71072L0.591925 2.87984L0.676486 3.47177L0.761047 4.06369L0.845608 5.24754L0.507365 3.64089L0.422804 2.71072L0.507365 2.11879H0.803327L1.69122 1.86511L3.21331 2.28792L1.09929 2.11879Z" fill="#E4C9D8"/>
<path d="M1.09929 2.11879L0.845608 2.71072L0.591925 2.87984L0.676486 3.47177L0.761047 4.06369L0.845608 5.24754L0.507365 3.64089L0.422804 2.71072L0.507365 2.11879H0.803327L1.69122 1.86511L3.21331 2.28792L1.09929 2.11879Z" fill="url(#paint12_linear_149_147)" fill-opacity="0.2"/>
<path d="M48.1165 30.4465L45.8333 28.3325L46.3407 28.5862L47.8628 28.3325L49.0466 27.7406L50.6533 26.2185L51.2452 24.781L51.1607 24.189L51.668 23.3434L51.4989 22.6669L50.8224 21.2294L50.1459 20.2147L49.1312 17.7624L48.3702 16.2403L47.6937 15.9021L46.3407 15.9866L45.9179 16.2403H44.9877L44.0576 16.3249L43.2119 17.0014L43.7193 16.3249L44.3958 16.0712L45.4105 15.8175L46.2561 15.4793L46.7635 15.2256H47.9473L48.201 15.3947L49.0466 16.0712L50.4842 17.5087L51.4989 18.8617L52.3445 19.7919L53.1901 21.314L53.6129 21.8213V22.3287L53.2747 23.3434L53.6129 23.428L54.1203 25.542L53.8666 26.9795L52.5982 28.8399L50.5687 30.1928L48.1165 30.4465Z" fill="#CBC6CC"/>
<path d="M48.1165 30.4465L45.8333 28.3325L46.3407 28.5862L47.8628 28.3325L49.0466 27.7406L50.6533 26.2185L51.2452 24.781L51.1607 24.189L51.668 23.3434L51.4989 22.6669L50.8224 21.2294L50.1459 20.2147L49.1312 17.7624L48.3702 16.2403L47.6937 15.9021L46.3407 15.9866L45.9179 16.2403H44.9877L44.0576 16.3249L43.2119 17.0014L43.7193 16.3249L44.3958 16.0712L45.4105 15.8175L46.2561 15.4793L46.7635 15.2256H47.9473L48.201 15.3947L49.0466 16.0712L50.4842 17.5087L51.4989 18.8617L52.3445 19.7919L53.1901 21.314L53.6129 21.8213V22.3287L53.2747 23.3434L53.6129 23.428L54.1203 25.542L53.8666 26.9795L52.5982 28.8399L50.5687 30.1928L48.1165 30.4465Z" fill="url(#paint13_linear_149_147)" fill-opacity="0.8"/>
<path d="M53.5284 34.5054L52.1754 32.9833H52.5136V32.7297H53.021V33.1525L53.4438 33.237V32.8142L53.6975 32.7297L53.8666 33.0679L55.2196 33.4062L56.488 33.4907L57.841 33.829L57.6718 33.9981L55.8115 34.0826L53.5284 34.5054Z" fill="#CBC6CC"/>
<path d="M53.5284 34.5054L52.1754 32.9833H52.5136V32.7297H53.021V33.1525L53.4438 33.237V32.8142L53.6975 32.7297L53.8666 33.0679L55.2196 33.4062L56.488 33.4907L57.841 33.829L57.6718 33.9981L55.8115 34.0826L53.5284 34.5054Z" fill="url(#paint14_linear_149_147)" fill-opacity="0.8"/>
<path d="M58.9402 35.5202L56.8262 34.8437L57.7564 34.7591H58.0946L58.4329 34.1672L58.7711 33.9981L58.8557 34.3363L59.1094 34.9282L59.4899 35.5202H60.0395L60.716 35.0853L61.2234 34.2518V33.7444L60.8006 34.2518L60.0395 34.7591L59.7859 34.59L59.5322 33.829L59.8704 33.5753L60.716 33.4907L61.2234 33.4062L61.6462 32.8142L62.3227 32.1377L62.4072 30.9539L63.3374 30.0237L62.6609 30.9539V31.9686L62.4918 32.5605L62.069 32.9833L61.7308 33.7444L61.2234 34.7591L60.716 35.0853L60.0395 35.5202H59.4899H58.9402Z" fill="#CBC6CC"/>
<path d="M58.9402 35.5202L56.8262 34.8437L57.7564 34.7591H58.0946L58.4329 34.1672L58.7711 33.9981L58.8557 34.3363L59.1094 34.9282L59.4899 35.5202H60.0395L60.716 35.0853L61.2234 34.2518V33.7444L60.8006 34.2518L60.0395 34.7591L59.7859 34.59L59.5322 33.829L59.8704 33.5753L60.716 33.4907L61.2234 33.4062L61.6462 32.8142L62.3227 32.1377L62.4072 30.9539L63.3374 30.0237L62.6609 30.9539V31.9686L62.4918 32.5605L62.069 32.9833L61.7308 33.7444L61.2234 34.7591L60.716 35.0853L60.0395 35.5202H59.4899H58.9402Z" fill="url(#paint15_linear_149_147)" fill-opacity="0.8"/>
<path d="M50.3996 35.2665H51.668H51.7526L50.9915 34.59L48.3702 32.476L46.1716 31.0384L43.2965 28.7553L44.3958 29.8546L45.7488 31.4613L48.2856 34.59L48.5393 34.7591L50.3996 35.2665Z" fill="#CBC6CC"/>
<path d="M50.3996 35.2665H51.668H51.7526L50.9915 34.59L48.3702 32.476L46.1716 31.0384L43.2965 28.7553L44.3958 29.8546L45.7488 31.4613L48.2856 34.59L48.5393 34.7591L50.3996 35.2665Z" fill="url(#paint16_linear_149_147)" fill-opacity="0.8"/>
<path d="M37.799 29.601L38.2218 29.6855L38.6869 29.4741L38.7291 28.9245L39.152 29.1782L39.6593 29.5164L39.7439 30.0238L38.8983 30.1929L39.913 30.7003L40.5895 31.715L40.0821 31.1231L38.8137 30.362L37.799 29.601Z" fill="#656067"/>
<path d="M39.152 29.2627L38.6869 29.4741M38.6869 29.4741L38.2218 29.6855L37.799 29.601L38.8137 30.362L40.0821 31.1231L40.5895 31.715L39.913 30.7003L38.8983 30.1929L39.7439 30.0238L39.6593 29.5164L39.152 29.1782L38.7291 28.9245L38.6869 29.4741Z" stroke="#656067" stroke-width="0.169122"/>
<circle cx="37.3763" cy="28.1632" r="0.930169" fill="black"/>
<circle cx="40.5895" cy="23.597" r="0.930169" fill="black"/>
<circle cx="40.5896" cy="24.1043" r="0.253813" fill="#D9D9D9"/>
<circle cx="40.5044" cy="23.1744" r="0.338418" fill="white"/>
<circle cx="37.2921" cy="27.7406" r="0.338418" fill="white"/>
<circle cx="37.3756" cy="28.6708" r="0.253813" fill="#D9D9D9"/>
<path d="M97.4001 25.9971C97.4001 27.3251 97.2321 28.5331 96.8961 29.621C96.5761 30.6931 96.0801 31.6211 95.4081 32.4051C94.7521 33.1891 93.9201 33.7891 92.9121 34.2051C91.9201 34.6211 90.7601 34.8291 89.4321 34.8291C88.0721 34.8291 86.8881 34.6211 85.8801 34.2051C84.8881 33.7731 84.0561 33.1731 83.3841 32.4051C82.7281 31.6211 82.2401 30.6851 81.9201 29.5971C81.6001 28.509 81.4401 27.301 81.4401 25.973C81.4401 24.213 81.7281 22.6771 82.3041 21.3651C82.8801 20.0531 83.7601 19.029 84.9441 18.293C86.1441 17.557 87.6481 17.189 89.4561 17.189C91.2161 17.189 92.6801 17.557 93.8481 18.293C95.0321 19.0131 95.9201 20.0371 96.5121 21.3651C97.1041 22.6771 97.4001 24.2211 97.4001 25.9971ZM84.1761 25.9971C84.1761 27.373 84.3601 28.557 84.7281 29.5491C85.0961 30.5251 85.6721 31.2851 86.4561 31.8291C87.2401 32.3571 88.2321 32.6211 89.4321 32.6211C90.6481 32.6211 91.6401 32.3571 92.4081 31.8291C93.1761 31.2851 93.7441 30.5251 94.1121 29.5491C94.4801 28.557 94.6641 27.373 94.6641 25.9971C94.6641 23.933 94.2481 22.325 93.4161 21.173C92.6001 20.005 91.2801 19.421 89.4561 19.421C88.2401 19.421 87.2401 19.685 86.4561 20.213C85.6721 20.741 85.0961 21.493 84.7281 22.4691C84.3601 23.445 84.1761 24.621 84.1761 25.9971ZM107.388 21.413C108.892 21.413 110.044 21.789 110.844 22.541C111.644 23.293 112.044 24.501 112.044 26.1651V34.5891H109.524V26.525C109.524 25.517 109.308 24.765 108.876 24.2691C108.46 23.7571 107.788 23.501 106.86 23.501C105.548 23.501 104.636 23.893 104.124 24.677C103.628 25.461 103.38 26.589 103.38 28.061V34.5891H100.836V21.653H102.852L103.212 23.3811H103.356C103.644 22.933 103.996 22.565 104.412 22.2771C104.828 21.989 105.292 21.773 105.804 21.629C106.316 21.485 106.844 21.413 107.388 21.413ZM121.041 21.413C122.177 21.413 123.153 21.653 123.969 22.133C124.785 22.597 125.409 23.269 125.841 24.149C126.289 25.029 126.513 26.069 126.513 27.2691V28.6611H117.825C117.857 29.9891 118.201 31.0051 118.857 31.7091C119.529 32.4131 120.465 32.7651 121.665 32.7651C122.497 32.7651 123.233 32.6931 123.873 32.5491C124.529 32.3891 125.201 32.1571 125.889 31.8531V33.9651C125.249 34.2531 124.593 34.4691 123.921 34.6131C123.265 34.7571 122.481 34.8291 121.569 34.8291C120.321 34.8291 119.217 34.5811 118.257 34.0851C117.297 33.5891 116.545 32.8531 116.001 31.8771C115.473 30.8851 115.209 29.669 115.209 28.229C115.209 26.7731 115.449 25.541 115.929 24.533C116.425 23.525 117.105 22.757 117.969 22.229C118.849 21.685 119.873 21.413 121.041 21.413ZM121.041 23.3811C120.129 23.3811 119.393 23.6771 118.833 24.2691C118.289 24.8611 117.969 25.7011 117.873 26.789H123.969C123.969 26.117 123.865 25.525 123.657 25.013C123.449 24.501 123.129 24.101 122.697 23.813C122.265 23.525 121.713 23.3811 121.041 23.3811ZM134.343 32.7651C134.679 32.7651 135.023 32.7331 135.375 32.6691C135.727 32.6051 136.031 32.5331 136.287 32.4531V34.3731C136.015 34.5011 135.647 34.6051 135.183 34.6851C134.719 34.7811 134.255 34.8291 133.791 34.8291C133.087 34.8291 132.439 34.7091 131.847 34.4691C131.271 34.2291 130.807 33.8131 130.455 33.2211C130.103 32.6291 129.927 31.8051 129.927 30.7491V23.597H128.127V22.445L130.023 21.4851L130.911 18.749H132.471V21.653H136.167V23.597H132.471V30.7011C132.471 31.4051 132.639 31.9251 132.975 32.2611C133.327 32.5971 133.783 32.7651 134.343 32.7651ZM152.717 19.445C151.869 19.445 151.109 19.597 150.437 19.901C149.765 20.189 149.189 20.621 148.709 21.197C148.245 21.773 147.885 22.469 147.629 23.285C147.389 24.101 147.269 25.021 147.269 26.0451C147.269 27.3891 147.469 28.557 147.869 29.5491C148.269 30.5251 148.869 31.2771 149.669 31.8051C150.469 32.3331 151.477 32.5971 152.693 32.5971C153.429 32.5971 154.133 32.5331 154.805 32.4051C155.493 32.2611 156.189 32.0771 156.893 31.8531V34.0851C156.221 34.3411 155.533 34.5251 154.829 34.6371C154.125 34.7651 153.309 34.8291 152.381 34.8291C150.637 34.8291 149.181 34.4691 148.013 33.7491C146.861 33.0291 145.997 32.0051 145.421 30.6771C144.845 29.3491 144.557 27.797 144.557 26.021C144.557 24.725 144.733 23.541 145.085 22.4691C145.453 21.3811 145.981 20.445 146.669 19.661C147.357 18.877 148.205 18.2771 149.213 17.861C150.237 17.429 151.413 17.213 152.741 17.213C153.605 17.213 154.453 17.309 155.285 17.501C156.117 17.677 156.869 17.933 157.541 18.2691L156.581 20.429C156.021 20.173 155.413 19.949 154.757 19.757C154.117 19.549 153.437 19.445 152.717 19.445ZM171.697 28.1091C171.697 29.1811 171.553 30.1331 171.265 30.9651C170.977 31.7971 170.569 32.5011 170.041 33.0771C169.513 33.6531 168.873 34.0931 168.121 34.3971C167.369 34.6851 166.521 34.8291 165.577 34.8291C164.713 34.8291 163.913 34.6851 163.177 34.3971C162.441 34.0931 161.801 33.6531 161.257 33.0771C160.729 32.5011 160.313 31.7971 160.009 30.9651C159.705 30.1331 159.553 29.173 159.553 28.085C159.553 26.661 159.793 25.453 160.273 24.461C160.769 23.469 161.473 22.717 162.385 22.205C163.313 21.677 164.401 21.413 165.649 21.413C166.833 21.413 167.873 21.677 168.769 22.205C169.681 22.717 170.393 23.469 170.905 24.461C171.433 25.453 171.697 26.669 171.697 28.1091ZM162.169 28.1091C162.169 29.0691 162.289 29.9011 162.529 30.6051C162.769 31.2931 163.145 31.8211 163.657 32.1891C164.169 32.5571 164.825 32.7411 165.625 32.7411C166.425 32.7411 167.081 32.5571 167.593 32.1891C168.105 31.8211 168.481 31.2931 168.721 30.6051C168.961 29.9011 169.081 29.0691 169.081 28.1091C169.081 27.117 168.953 26.285 168.697 25.613C168.457 24.9411 168.081 24.429 167.569 24.077C167.073 23.709 166.417 23.525 165.601 23.525C164.401 23.525 163.529 23.925 162.985 24.725C162.441 25.525 162.169 26.653 162.169 28.1091ZM181.474 21.413C182.978 21.413 184.13 21.789 184.93 22.541C185.73 23.293 186.13 24.501 186.13 26.1651V34.5891H183.61V26.525C183.61 25.517 183.394 24.765 182.962 24.2691C182.546 23.7571 181.874 23.501 180.946 23.501C179.634 23.501 178.722 23.893 178.21 24.677C177.714 25.461 177.466 26.589 177.466 28.061V34.5891H174.922V21.653H176.938L177.298 23.3811H177.442C177.73 22.933 178.082 22.565 178.498 22.2771C178.914 21.989 179.378 21.773 179.89 21.629C180.402 21.485 180.93 21.413 181.474 21.413ZM196.591 21.413C198.095 21.413 199.247 21.789 200.047 22.541C200.847 23.293 201.247 24.501 201.247 26.1651V34.5891H198.727V26.525C198.727 25.517 198.511 24.765 198.079 24.2691C197.663 23.7571 196.991 23.501 196.063 23.501C194.751 23.501 193.839 23.893 193.327 24.677C192.831 25.461 192.583 26.589 192.583 28.061V34.5891H190.039V21.653H192.055L192.415 23.3811H192.559C192.847 22.933 193.199 22.565 193.615 22.2771C194.031 21.989 194.495 21.773 195.007 21.629C195.519 21.485 196.047 21.413 196.591 21.413ZM210.244 21.413C211.38 21.413 212.356 21.653 213.172 22.133C213.988 22.597 214.612 23.269 215.044 24.149C215.492 25.029 215.716 26.069 215.716 27.2691V28.6611H207.028C207.06 29.9891 207.404 31.0051 208.06 31.7091C208.732 32.4131 209.668 32.7651 210.868 32.7651C211.7 32.7651 212.436 32.6931 213.076 32.5491C213.732 32.3891 214.404 32.1571 215.092 31.8531V33.9651C214.452 34.2531 213.796 34.4691 213.124 34.6131C212.468 34.7571 211.684 34.8291 210.772 34.8291C209.524 34.8291 208.42 34.5811 207.46 34.0851C206.5 33.5891 205.748 32.8531 205.204 31.8771C204.676 30.8851 204.412 29.669 204.412 28.229C204.412 26.7731 204.652 25.541 205.132 24.533C205.628 23.525 206.308 22.757 207.172 22.229C208.052 21.685 209.076 21.413 210.244 21.413ZM210.244 23.3811C209.332 23.3811 208.596 23.6771 208.036 24.2691C207.492 24.8611 207.172 25.7011 207.076 26.789H213.172C213.172 26.117 213.068 25.525 212.86 25.013C212.652 24.501 212.332 24.101 211.9 23.813C211.468 23.525 210.916 23.3811 210.244 23.3811ZM224.098 34.8291C222.914 34.8291 221.874 34.5971 220.978 34.1331C220.082 33.6691 219.386 32.9491 218.89 31.9731C218.394 30.9811 218.146 29.7251 218.146 28.2051C218.146 26.605 218.41 25.309 218.938 24.317C219.482 23.325 220.21 22.597 221.122 22.133C222.05 21.653 223.106 21.413 224.29 21.413C225.01 21.413 225.682 21.493 226.306 21.653C226.946 21.797 227.474 21.965 227.89 22.1571L227.122 24.2211C226.674 24.045 226.194 23.893 225.682 23.765C225.186 23.637 224.714 23.573 224.266 23.573C223.466 23.573 222.802 23.749 222.274 24.1011C221.762 24.4371 221.378 24.949 221.122 25.637C220.882 26.309 220.762 27.157 220.762 28.181C220.762 29.157 220.89 29.9811 221.146 30.6531C221.402 31.3251 221.778 31.8371 222.274 32.1891C222.786 32.5251 223.418 32.6931 224.17 32.6931C224.89 32.6931 225.522 32.6131 226.066 32.4531C226.61 32.2931 227.122 32.0851 227.602 31.8291V34.0371C227.138 34.3091 226.634 34.5091 226.09 34.6371C225.546 34.7651 224.882 34.8291 224.098 34.8291ZM235.312 32.7651C235.648 32.7651 235.992 32.7331 236.344 32.6691C236.696 32.6051 237 32.5331 237.256 32.4531V34.3731C236.984 34.5011 236.616 34.6051 236.152 34.6851C235.688 34.7811 235.224 34.8291 234.76 34.8291C234.056 34.8291 233.408 34.7091 232.816 34.4691C232.24 34.2291 231.776 33.8131 231.424 33.2211C231.072 32.6291 230.896 31.8051 230.896 30.7491V23.597H229.096V22.445L230.992 21.4851L231.88 18.749H233.44V21.653H237.136V23.597H233.44V30.7011C233.44 31.4051 233.608 31.9251 233.944 32.2611C234.296 32.5971 234.752 32.7651 235.312 32.7651Z" fill="#333333"/>
<defs>
<linearGradient id="paint0_linear_149_147" x1="5.58145" y1="11.7583" x2="8.2874" y2="5.75446" gradientUnits="userSpaceOnUse">
<stop stop-color="#DDE0EF"/>
<stop offset="1" stop-color="#DABBCD"/>
</linearGradient>
<linearGradient id="paint1_linear_149_147" x1="23.2541" y1="0.680934" x2="15.9819" y2="19.1997" gradientUnits="userSpaceOnUse">
<stop stop-color="#D9ADC0"/>
<stop offset="1" stop-color="#DDE0EF"/>
</linearGradient>
<linearGradient id="paint2_linear_149_147" x1="23.2541" y1="0.680934" x2="15.9819" y2="19.1997" gradientUnits="userSpaceOnUse">
<stop stop-color="#D9ADC0"/>
<stop offset="1" stop-color="#DDE0EF"/>
</linearGradient>
<linearGradient id="paint3_linear_149_147" x1="23.2541" y1="0.680934" x2="15.9819" y2="19.1997" gradientUnits="userSpaceOnUse">
<stop stop-color="#D9ADC0"/>
<stop offset="1" stop-color="#DDE0EF"/>
</linearGradient>
<linearGradient id="paint4_linear_149_147" x1="18.7736" y1="13.9569" x2="13.7845" y2="24.6116" gradientUnits="userSpaceOnUse">
<stop stop-color="#DABDCF" stop-opacity="0"/>
<stop offset="1" stop-color="#DABDCF"/>
</linearGradient>
<linearGradient id="paint5_linear_149_147" x1="37.799" y1="27.4869" x2="33.4864" y2="26.3876" gradientUnits="userSpaceOnUse">
<stop stop-color="#DDE0EF"/>
<stop offset="1" stop-color="#918080"/>
</linearGradient>
<linearGradient id="paint6_linear_149_147" x1="41.0137" y1="24.5272" x2="35.94" y2="22.0749" gradientUnits="userSpaceOnUse">
<stop stop-color="#DDE0EF"/>
<stop offset="1" stop-color="#938283"/>
</linearGradient>
<linearGradient id="paint7_linear_149_147" x1="9.51309" y1="0.343018" x2="9.55537" y2="18.6927" gradientUnits="userSpaceOnUse">
<stop stop-opacity="0"/>
<stop offset="1" stop-color="#7E3661"/>
</linearGradient>
<linearGradient id="paint8_linear_149_147" x1="9.51309" y1="0.343018" x2="9.55537" y2="18.6927" gradientUnits="userSpaceOnUse">
<stop stop-opacity="0"/>
<stop offset="1" stop-color="#7E3661"/>
</linearGradient>
<linearGradient id="paint9_linear_149_147" x1="9.51309" y1="0.343018" x2="9.55537" y2="18.6927" gradientUnits="userSpaceOnUse">
<stop stop-opacity="0"/>
<stop offset="1" stop-color="#7E3661"/>
</linearGradient>
<linearGradient id="paint10_linear_149_147" x1="9.51309" y1="0.343018" x2="9.55537" y2="18.6927" gradientUnits="userSpaceOnUse">
<stop stop-opacity="0"/>
<stop offset="1" stop-color="#7E3661"/>
</linearGradient>
<linearGradient id="paint11_linear_149_147" x1="9.51309" y1="0.343018" x2="9.55537" y2="18.6927" gradientUnits="userSpaceOnUse">
<stop stop-opacity="0"/>
<stop offset="1" stop-color="#7E3661"/>
</linearGradient>
<linearGradient id="paint12_linear_149_147" x1="9.51309" y1="0.343018" x2="9.55537" y2="18.6927" gradientUnits="userSpaceOnUse">
<stop stop-opacity="0"/>
<stop offset="1" stop-color="#7E3661"/>
</linearGradient>
<linearGradient id="paint13_linear_149_147" x1="46.2561" y1="27.8251" x2="54.4585" y2="18.4389" gradientUnits="userSpaceOnUse">
<stop stop-color="#826E6D"/>
<stop offset="1" stop-color="#DABCCE"/>
</linearGradient>
<linearGradient id="paint14_linear_149_147" x1="46.2561" y1="27.8251" x2="54.4585" y2="18.4389" gradientUnits="userSpaceOnUse">
<stop stop-color="#826E6D"/>
<stop offset="1" stop-color="#DABCCE"/>
</linearGradient>
<linearGradient id="paint15_linear_149_147" x1="46.2561" y1="27.8251" x2="54.4585" y2="18.4389" gradientUnits="userSpaceOnUse">
<stop stop-color="#826E6D"/>
<stop offset="1" stop-color="#DABCCE"/>
</linearGradient>
<linearGradient id="paint16_linear_149_147" x1="46.2561" y1="27.8251" x2="54.4585" y2="18.4389" gradientUnits="userSpaceOnUse">
<stop stop-color="#826E6D"/>
<stop offset="1" stop-color="#DABCCE"/>
</linearGradient>
</defs>
</svg>
