<svg width="66" height="51" viewBox="0 0 66 51" fill="none" xmlns="http://www.w3.org/2000/svg">
<path fill-rule="evenodd" clip-rule="evenodd" d="M1.60745 1.9492L3.8906 1.44184L7.78039 1.35728L10.5709 0.849914L11.4165 0.765353L13.1077 0.511671L14.3761 0.257989L15.3063 0.0888672L15.9828 0.511671H16.4902L18.6042 1.01904L18.7733 1.27272L18.9424 1.69552V2.37201L19.027 2.71025L18.8579 4.65515L18.1814 5.50076L18.3505 6.09268V6.60005V7.10741L21.3101 8.03758L23.5933 8.96775L25.1999 9.72879L27.2294 10.9972L29.7662 12.6039L32.5567 14.8024L34.51 16.5782L33.656 14.9716L33.4023 14.2951L33.5714 13.3649L33.9097 12.0965L34.1633 11.2509L34.8398 10.7435L35.4405 10.4053L36.3619 10.2362L36.9539 10.3207L37.4612 10.659L38.2223 10.7435H39.0679L40.9282 11.2509L41.351 11.7583L40.7591 11.42L39.1524 10.9972H38.0531H37.5458L36.7002 10.4898L35.9391 10.9972L34.9244 11.6737V12.3502L35.009 13.534L36.0237 15.3098L36.8693 15.648L38.8142 16.3245L39.9135 16.5782L40.1672 17.001L40.6745 16.9165L41.1819 17.3393L42.1121 17.001L42.8731 17.6775L43.6342 17.5084L44.1415 18.0157L45.9173 18.6077L46.8475 18.6922L47.6931 19.2842L48.9615 19.707L50.0608 20.5526L50.5681 21.0599L51.4983 22.8357L51.5829 23.3431L51.0755 24.1887L51.1601 24.8652L50.5681 26.3027L49.046 27.6557L47.524 28.4167L46.3401 28.5858L45.8327 28.3322H45.6592L46.171 28.755L47.6085 30.0234L48.2004 30.5307L50.2299 31.9683L52.0902 32.8984L53.4432 34.3803L53.7814 33.9977L57.1639 33.9132L57.7558 33.744L58.5168 33.4904L58.9397 33.3212L59.1088 33.4904L59.447 33.744L59.7007 33.9132L61.3919 33.6595L60.8 34.9279L60.1235 35.4353H59.5316L59.1088 35.0125L58.8551 33.9132L58.5168 34.1669L58.1786 34.7588H57.7558L54.2043 35.2884L55.4727 36.9574L55.73 37.3802L56.6565 38.9023L57.2484 40.4244V42.0652L56.8256 43.384L55.4727 45.1598L55.1344 45.3289L55.8109 43.9759L56.1492 42.4538L55.5572 40.5089L55.2552 39.6633L53.2741 40.1707L51.752 40.0861L50.1453 39.0714L49.5534 38.9023L50.4836 40.0861L51.1601 40.5089L51.4983 41.1008L51.6674 41.4391L52.1748 41.3545L52.4285 41.7773V42.0652L52.9358 42.4538L53.3586 42.792L53.6969 43.2149L53.5278 43.4685H53.9506L53.6969 44.145L54.0351 44.4833L54.5425 45.0752L54.0351 45.7517L52.9358 48.1194L53.0204 50.1488L52.513 48.8804L52.7667 47.3583L52.9358 45.6671L51.5829 43.2149L50.3145 42.1156L47.6931 39.6633L46.4247 38.1412L44.818 36.0272L44.2261 35.097L45.2408 37.4647L45.4099 38.0566L45.4945 39.0714L46.7629 41.27H46.932L47.0166 41.6928H47.2703V42.3692L48.5387 43.4685L49.3843 44.3987L50.2299 45.1598L51.5829 46.5127L51.9211 48.5422L50.9064 46.5127L48.1159 45.5826L46.5092 43.9759L44.4798 41.9464L42.0275 39.7479L41.0128 38.564L41.1819 37.211L41.351 35.3507V33.8286L41.1819 32.8984L40.4208 31.5455L38.2223 29.7697L37.884 29.6006L37.0384 29.2623L36.4465 28.9241L35.9391 28.3322L34.9244 27.402L33.7405 27.1483L31.7956 27.3174L23.9315 23.4276L16.0673 18.1003L14.5453 16.24L11.5011 12.6039L10.2327 13.534L8.37232 14.5488L7.18847 14.9716L4.56708 15.4789L3.97516 16.0709H3.29867L1.60745 16.24L0.846408 15.8172L0.508165 15.3098L0.254483 15.0561L0.169922 14.6333V10.4053L0.592726 9.30599L0.846408 6.2618L0.761847 6.09268L0.592726 4.40147V3.97866V2.62569L1.60745 1.9492ZM53.6969 37.211L52.1748 35.7735L51.8366 35.2661L48.8769 34.1669L48.285 34.7588L50.7373 37.0419L51.8366 37.7184H54.0419L53.6969 37.211ZM39.1524 20.6371L38.0531 19.7915L35.4405 17.4238L36.1928 17.6775L37.2075 17.7621L38.0531 18.0157L39.0679 18.354L40.3363 18.6077L41.4356 18.9459L42.4503 19.2842L43.9724 19.7915L45.5791 20.5526L46.932 21.0599L48.2004 21.9055L48.8769 22.8357L49.2152 23.935L48.8769 24.4424L48.2004 25.1189L46.5938 25.4571L45.4099 25.288L43.9724 24.8652L42.8731 23.935L42.0275 23.3431L40.9282 22.4975L39.9135 21.6519L39.4907 21.3982L39.5752 21.2291L39.998 20.8063L39.1524 20.6371Z" fill="#DDE0EF"/>
<path d="M56.6565 38.9023L56.7411 39.1197L58.3477 38.3949L59.3625 38.3103L60.8 38.9023L61.3074 38.9868L64.1824 41.1008L64.3515 41.5236H64.7743L64.6052 40.0015L63.5905 39.1559L62.7449 38.3949L61.9838 37.9721L60.9691 37.5493L60.3772 37.3802L59.5316 37.211H58.8551L58.686 36.7882L58.3477 36.8728L58.1786 37.1265H57.7558V36.9574L57.6712 36.7882L57.2484 36.8728L57.1639 37.211L56.8256 37.1265V36.7882H56.6565L56.3183 37.1265L55.73 37.3802L56.6565 38.9023Z" fill="#DDE0EF"/>
<path d="M57.2484 40.678V42.0652L56.8256 43.384L59.0242 45.2443L59.6161 45.6671L60.5463 45.5826L61.7302 45.6671L63.2523 44.9906L64.6898 43.1303L64.8589 42.6229L64.0979 43.2994L62.914 43.9759L62.1966 44.5678H60.3772L59.447 44.0605L58.6014 43.1303L57.2484 40.678Z" fill="#DDE0EF"/>
<path d="M35.4405 17.4238L35.3472 17.3393L34.51 16.5782M35.4405 17.4238L38.0531 19.7915L39.1524 20.6371L39.998 20.8063L39.5752 21.2291L39.4907 21.3982L39.9135 21.6519L40.9282 22.4975L42.0275 23.3431L42.8731 23.935L43.9724 24.8652L45.4099 25.288L46.5938 25.4571L48.2004 25.1189L48.8769 24.4424L49.2152 23.935L48.8769 22.8357L48.2004 21.9055L46.932 21.0599L45.5791 20.5526L43.9724 19.7915L42.4503 19.2842L41.4356 18.9459L40.3363 18.6077L39.0679 18.354L38.0531 18.0157L37.2075 17.7621L36.1928 17.6775L35.4405 17.4238ZM34.51 16.5782L32.5567 14.8024L29.7662 12.6039L27.2294 10.9972L25.1999 9.72879L23.5933 8.96775L21.3101 8.03758L18.3505 7.10741V6.60005V6.09268L18.1814 5.50076L18.8579 4.65515L19.027 2.71025L18.9424 2.37201V1.69552L18.7733 1.27272L18.6042 1.01904L16.4901 0.511671H15.9828L15.3063 0.0888672L14.3761 0.257989L13.1077 0.511671L11.4165 0.765353L10.5709 0.849914L7.78039 1.35728L3.8906 1.44184L1.60745 1.9492L0.592726 2.62569V3.97866V4.40147L0.761847 6.09268L0.846408 6.2618L0.592726 9.30599L0.169922 10.4053V14.6333L0.254483 15.0561L0.508165 15.3098L0.846408 15.8172L1.60745 16.24L3.29867 16.0709H3.97516L4.56708 15.4789L7.18847 14.9716L8.37232 14.5488L10.2327 13.534L11.5011 12.6039L14.5453 16.24L16.0673 18.1003L23.9315 23.4276L31.7956 27.3174L33.7405 27.1483L34.9244 27.402L35.9391 28.3322L36.4465 28.9241L37.0384 29.2623L37.884 29.6006L38.2223 29.7697L40.4208 31.5455L41.1819 32.8984L41.351 33.8286V35.3507L41.1819 37.211L41.0128 38.564L42.0275 39.7479L44.4798 41.9464L46.5092 43.9759L48.1159 45.5826L50.9064 46.5127L51.9211 48.5422L51.5829 46.5127L50.2299 45.1598L49.3843 44.3987L48.5387 43.4685L47.2703 42.3692V41.6928H47.0166L46.932 41.27H46.7629L45.4945 39.0714L45.4099 38.0566L45.2408 37.4647L44.2261 35.097L44.818 36.0272L46.4247 38.1412L47.6931 39.6633L50.3145 42.1156L51.5829 43.2149L52.9358 45.6671L52.7667 47.3583L52.513 48.8804L53.0204 50.1488L52.9358 48.1194L54.0351 45.7517L54.5425 45.0752L54.0351 44.4833L53.6969 44.145L53.9506 43.4685H53.5278L53.6969 43.2149L53.3586 42.7921L52.9358 42.4538L52.4285 42.0652V41.7773L52.1748 41.3545L51.6674 41.4391L51.4983 41.1008L51.1601 40.5089L50.4836 40.0861L49.5534 38.9023L50.1453 39.0714L51.752 40.0861L53.2741 40.1707L55.2552 39.6633M34.51 16.5782L33.656 14.9716L33.4023 14.2951L33.5714 13.3649L33.9097 12.0965L34.1634 11.2509L34.8398 10.7435L35.4405 10.4053L36.3619 10.2362L36.9539 10.3207L37.4612 10.659L38.2223 10.7435H39.0679L40.9282 11.2509L41.351 11.7583L40.7591 11.42L39.1524 10.9972H38.0531H37.5458L36.7002 10.4898L35.9391 10.9972L34.9244 11.6737V12.3502L35.009 13.534L36.0237 15.3098L36.8693 15.648L38.8142 16.3245L39.9135 16.5782L40.1672 17.001L40.6745 16.9165L41.1819 17.3393L42.1121 17.001L42.8731 17.6775L43.6342 17.5084L44.1415 18.0157L45.9173 18.6077L46.8475 18.6922L47.6931 19.2842L48.9615 19.707L50.0608 20.5526L50.5681 21.0599L51.4983 22.8357L51.5829 23.3431L51.0755 24.1887L51.1601 24.8652L50.5681 26.3027L49.046 27.6557L47.524 28.4167L46.3401 28.5858L45.8327 28.3322H45.6592M55.4727 36.9574L53.866 34.8433L53.4432 34.3803M55.4727 36.9574L55.73 37.3802M55.4727 36.9574L54.2043 35.2884L57.7558 34.7588H58.1786L58.5169 34.1669L58.8551 33.9132L59.1088 35.0125L59.5316 35.4353H60.1235L60.8 34.9279L61.3919 33.6595L59.7007 33.9132L59.447 33.744L59.1088 33.4904L58.9397 33.3212L58.5169 33.4904L57.7558 33.744L57.1639 33.9132L53.7814 33.9977L53.4432 34.3803M56.6565 38.9023L57.2484 40.4243V42.0652M56.6565 38.9023L55.73 37.3802M56.6565 38.9023L56.7411 39.1197L58.3477 38.3949L59.3625 38.3103L60.8 38.9023L61.3074 38.9868L64.1824 41.1008L64.3515 41.5236H64.7743L64.6052 40.0015L63.5905 39.1559L62.7449 38.3949L61.9838 37.9721L60.9691 37.5493L60.3772 37.3802L59.5316 37.211H58.8551L58.686 36.7882L58.3477 36.8728L58.1786 37.1265H57.7558V36.9574L57.6712 36.7882L57.2484 36.8728L57.1639 37.211L56.8256 37.1265V36.7882H56.6565L56.3183 37.1265L55.73 37.3802M57.2484 42.0652L56.8256 43.384M57.2484 42.0652V40.678L58.6014 43.1303L59.447 44.0605L60.3772 44.5678H62.1966L62.914 43.9759L64.0979 43.2994L64.8589 42.6229L64.6898 43.1303L63.2523 44.9906L61.7302 45.6671L60.5463 45.5826L59.6161 45.6671L59.0242 45.2443L56.8256 43.384M56.8256 43.384L55.4727 45.1598L55.1344 45.3289L55.8109 43.9759L56.1491 42.4538L55.5572 40.5089L55.2552 39.6633M54.0419 37.7184L55.1344 39.3251L55.2552 39.6633M54.0419 37.7184L53.6969 37.211L52.1748 35.7735L51.8366 35.2661L48.8769 34.1669L48.285 34.7588L50.7373 37.0419L51.8366 37.7184H54.0419ZM53.4432 34.3803L52.0902 32.8984L50.2299 31.9683L48.2004 30.5307L47.6085 30.0234L46.171 28.755L45.6592 28.3322M45.6592 28.3322L44.2261 27.1483L45.5791 28.3322H45.6592Z" stroke="#DDE0EF" stroke-width="0.169122"/>
<path d="M1.52246 2.87939L2.19895 3.13308L3.12912 3.38676L7.86452 6.26183L10.0631 9.22145L11.7543 13.7877L10.9087 14.3797L9.80942 14.0414L9.21749 14.6333H8.03364L9.80942 13.0267L7.18803 10.4053L8.28732 12.773L5.66594 10.5744V9.47513L4.73577 7.86848L2.53719 4.99341L1.52246 2.87939Z" fill="#AE8F7D"/>
<path d="M1.52246 2.87939L2.19895 3.13308L3.12912 3.38676L7.86452 6.26183L10.0631 9.22145L11.7543 13.7877L10.9087 14.3797L9.80942 14.0414L9.21749 14.6333H8.03364L9.80942 13.0267L7.18803 10.4053L8.28732 12.773L5.66594 10.5744V9.47513L4.73577 7.86848L2.53719 4.99341L1.52246 2.87939Z" fill="url(#paint0_linear_191_61)" fill-opacity="0.8"/>
<path d="M12.6835 7.86842L10.3158 5.50072L12.1762 6.60001L11.3306 5.07791L12.5144 5.50072L15.5586 6.1772L17.8417 6.60001L19.1947 7.02281L21.1396 7.86842L23.1691 8.96771L31.7943 14.9715L31.2869 16.4091L30.8641 15.9863L29.342 17.3392H27.9045L28.3273 18.1848L24.522 17.3392L25.2831 18.1848L20.9705 15.1406H21.4779L20.1249 14.0414H21.1396L17.8417 12.5193L17.1653 13.2803L14.2902 11.3354L12.6835 9.81332H13.4446L13.1063 9.30595H13.6983L12.6835 7.86842Z" fill="#CAB9C1"/>
<path d="M12.6835 7.86842L10.3158 5.50072L12.1762 6.60001L11.3306 5.07791L12.5144 5.50072L15.5586 6.1772L17.8417 6.60001L19.1947 7.02281L21.1396 7.86842L23.1691 8.96771L31.7943 14.9715L31.2869 16.4091L30.8641 15.9863L29.342 17.3392H27.9045L28.3273 18.1848L24.522 17.3392L25.2831 18.1848L20.9705 15.1406H21.4779L20.1249 14.0414H21.1396L17.8417 12.5193L17.1653 13.2803L14.2902 11.3354L12.6835 9.81332H13.4446L13.1063 9.30595H13.6983L12.6835 7.86842Z" fill="url(#paint1_linear_191_61)"/>
<path d="M10.3158 3.13301L7.52533 1.61092L6.59516 2.03372L5.32675 2.11829L3.63554 1.4418H5.07307L5.91868 1.10356L8.0327 0.934434L9.38567 0.596191L11.4997 0.765313L9.80847 1.4418L10.9078 2.11829L13.8674 2.37197L13.7828 3.04845L11.3306 3.13301V3.8095L10.3158 3.13301Z" fill="#CAB9C1"/>
<path d="M10.3158 3.13301L7.52533 1.61092L6.59516 2.03372L5.32675 2.11829L3.63554 1.4418H5.07307L5.91868 1.10356L8.0327 0.934434L9.38567 0.596191L11.4997 0.765313L9.80847 1.4418L10.9078 2.11829L13.8674 2.37197L13.7828 3.04845L11.3306 3.13301V3.8095L10.3158 3.13301Z" fill="url(#paint2_linear_191_61)"/>
<path d="M0.760471 7.53017V6.00808L1.94432 6.51545L3.46642 7.44561L5.07307 8.96771V10.4052L3.80466 11.6737H1.52152L0.0839844 13.3649L0.337667 10.7435L0.760471 10.9972L1.52152 10.2361L1.7752 8.37578L1.18327 7.02281L0.760471 7.53017Z" fill="#CAB9C1"/>
<path d="M0.760471 7.53017V6.00808L1.94432 6.51545L3.46642 7.44561L5.07307 8.96771V10.4052L3.80466 11.6737H1.52152L0.0839844 13.3649L0.337667 10.7435L0.760471 10.9972L1.52152 10.2361L1.7752 8.37578L1.18327 7.02281L0.760471 7.53017Z" fill="url(#paint3_linear_191_61)"/>
<path d="M7.86519 6.68441L5.32837 4.90863L2.28418 3.13285H3.9754L4.48276 3.55566V2.62549L5.32837 4.06302L8.11887 6.00792L9.21816 7.44545L11.5859 8.96755V11.0816L12.6006 12.8573L13.108 14.1258L15.0529 16.2398L18.7735 19.4531L21.3949 21.2289L25.031 23.0046L28.8363 24.7804L31.7959 26.3025L32.7261 25.8797V26.7253L32.0496 27.5709L32.3033 27.9937H31.7959L30.9503 27.5709L27.3142 25.8797L23.7626 24.273L20.2956 22.0745L15.7293 18.4384L12.6006 14.9714L10.9939 12.4345L8.96448 8.46018L7.86519 6.68441Z" fill="#B5B5BF"/>
<path d="M7.86519 6.68441L5.32837 4.90863L2.28418 3.13285H3.9754L4.48276 3.55566V2.62549L5.32837 4.06302L8.11887 6.00792L9.21816 7.44545L11.5859 8.96755V11.0816L12.6006 12.8573L13.108 14.1258L15.0529 16.2398L18.7735 19.4531L21.3949 21.2289L25.031 23.0046L28.8363 24.7804L31.7959 26.3025L32.7261 25.8797V26.7253L32.0496 27.5709L32.3033 27.9937H31.7959L30.9503 27.5709L27.3142 25.8797L23.7626 24.273L20.2956 22.0745L15.7293 18.4384L12.6006 14.9714L10.9939 12.4345L8.96448 8.46018L7.86519 6.68441Z" fill="url(#paint4_linear_191_61)"/>
<path d="M34.0787 23.935L32.8103 25.7953V26.641L32.1338 27.5711L32.3875 28.0785L33.1485 28.4167L33.7404 28.2476L34.4169 27.5711H34.7552L36.1081 28.5859L35.8545 28.0785L35.7699 27.1483L36.1927 26.8946L36.8692 26.4718L36.1927 25.9645L35.6853 25.8799L34.8397 27.1483L34.5861 26.9792L34.5015 26.3873L35.0934 25.288L35.2625 24.1887L34.5861 23.5122L34.0787 23.935Z" fill="#826E6D"/>
<path d="M34.0787 23.935L32.8103 25.7953V26.641L32.1338 27.5711L32.3875 28.0785L33.1485 28.4167L33.7404 28.2476L34.4169 27.5711H34.7552L36.1081 28.5859L35.8545 28.0785L35.7699 27.1483L36.1927 26.8946L36.8692 26.4718L36.1927 25.9645L35.6853 25.8799L34.8397 27.1483L34.5861 26.9792L34.5015 26.3873L35.0934 25.288L35.2625 24.1887L34.5861 23.5122L34.0787 23.935Z" fill="url(#paint5_linear_191_61)" fill-opacity="0.9"/>
<path d="M35.771 23.5123L34.8408 22.7512L35.9401 20.8909L37.6313 20.6372L38.5615 20.8909L38.2233 22.0747L39.0689 21.06L39.9145 20.8909L39.6608 21.4828L38.7306 21.9902L38.3078 22.8358H39.0689H39.6608L39.1534 23.766L38.5615 24.3579L37.6313 23.766L36.3629 23.174L35.771 23.5123Z" fill="#B8AAA9"/>
<path d="M35.771 23.5123L34.8408 22.7512L35.9401 20.8909L37.6313 20.6372L38.5615 20.8909L38.2233 22.0747L39.0689 21.06L39.9145 20.8909L39.6608 21.4828L38.7306 21.9902L38.3078 22.8358H39.0689H39.6608L39.1534 23.766L38.5615 24.3579L37.6313 23.766L36.3629 23.174L35.771 23.5123Z" fill="url(#paint6_linear_191_61)" fill-opacity="0.9"/>
<path d="M45.3242 37.5496L44.3941 36.1121L44.4786 37.1268L45.0705 37.7187L45.3242 37.5496Z" fill="#9C898C"/>
<path d="M45.2397 39.7482V38.4798L45.6625 39.2408L45.9162 39.8327L46.2544 40.2555L46.5081 41.1857L45.9162 40.7629L45.747 39.8327L45.2397 39.7482Z" fill="#9C898C"/>
<path d="M50.3133 35.2665L51.6663 35.351L51.8354 35.6893L50.3133 35.2665Z" fill="#9C898C"/>
<path d="M57.3319 41.4394L56.9936 40.4247H57.0782L57.1627 40.5938L57.3319 41.4394Z" fill="#9C898C"/>
<path d="M56.9091 43.5534L56.9936 42.6232L57.5855 43.9762L59.0231 45.2446L58.1775 44.9909L56.9091 43.5534Z" fill="#9C898C"/>
<path d="M61.5599 39.7482L60.968 38.9871L61.8981 38.818L62.6592 39.4945L63.5048 40.0864L63.843 41.0166H63.1665L62.9974 40.5092L62.4055 40.4247L62.2364 39.8327L61.5599 39.7482Z" fill="#9C898C"/>
<path d="M64.1813 41.4394L64.5195 41.524L64.6041 42.4541L64.1813 42.2004V41.4394Z" fill="#9C898C"/>
<path d="M63.1665 44.9064L64.435 43.2997L64.5195 43.8917L63.1665 44.9064Z" fill="#9C898C"/>
<path d="M35.0078 11.5894L36.699 10.5747L37.2414 10.876L37.9618 10.968L38.8976 10.913L39.2671 11.1346L40.8425 11.3358L39.7432 11.4203L39.2671 11.1346L37.9618 10.968L37.4601 10.9975L37.2414 10.876L36.8681 10.8284L35.8534 11.4203L35.0078 11.5894Z" fill="#9C898C"/>
<path d="M40.8433 28.9245L39.9976 28.6708L41.0124 29.7701L41.1815 30.4466L41.6889 31.7996L42.4499 32.9834L42.8727 34.6746L43.211 36.1967L44.2257 37.8034L43.6338 36.2813L43.3801 34.6746L42.8727 32.8989L41.6889 30.7003L41.4352 29.8547L40.8433 28.9245Z" fill="#F2F6FF"/>
<path d="M45.7478 41.9469L44.1411 38.5644L46.0015 41.7777L47.439 44.3146L43.972 40.3402L45.7478 41.9469Z" fill="#F2F6FF"/>
<path d="M46.086 36.1967L44.8176 34.8438H45.325L44.7331 33.9136L45.7478 34.5901L46.5088 35.6048L45.8323 35.182L46.086 36.1967Z" fill="#F2F6FF"/>
<path d="M47.6927 38.9027L46.7625 37.5497L46.6779 37.2115H46.8471L47.7772 37.9725L47.2699 37.8879L47.6927 38.9027Z" fill="#F2F6FF"/>
<path d="M51.8362 42.3697L50.9906 41.8623L50.8214 41.4395L51.1597 41.5241L51.8362 42.3697Z" fill="#F2F6FF"/>
<path d="M48.2846 44.6528L48.1155 44.23L48.5383 44.6528H48.2846Z" fill="#F2F6FF"/>
<path d="M54.0347 35.6048L50.8214 33.3217L51.3288 33.4062L50.9906 32.7297L54.0347 35.6048Z" fill="#F2F6FF"/>
<path d="M45.325 28.8399L46.086 29.7701L44.8176 28.8188L45.325 28.8399Z" fill="#F2F6FF"/>
<path d="M45.7478 28.9245L43.8874 27.6561L45.5787 28.5017L48.7074 31.1231L45.7478 28.9245Z" fill="#F2F6FF"/>
<path d="M45.325 26.8105L43.5492 26.0494L42.9573 25.6266L45.2404 26.4722L46.0015 26.8105H45.325Z" fill="#F2F6FF"/>
<path d="M47.8618 27.0642L47.3544 27.1487L46.9316 27.0642L47.8618 26.6414L48.8765 26.0494L47.8618 27.0642Z" fill="#F2F6FF"/>
<path d="M38.8138 25.373L38.7292 24.9501H38.8138L39.3212 25.1193V25.373H38.8138Z" fill="#F2F6FF"/>
<path d="M41.6043 35.2666L41.5197 33.9136L42.0271 33.9981V34.421L41.7734 34.6746L41.6043 35.2666Z" fill="#F2F6FF"/>
<path d="M41.2661 38.4799L41.3506 37.5497L41.6889 38.9872L41.2661 38.4799Z" fill="#F2F6FF"/>
<path d="M47.7772 35.182L47.3544 34.9283H47.7772V35.182Z" fill="#F2F6FF"/>
<path d="M49.2148 37.2115L48.0309 35.6048L49.3839 36.8732L50.5677 37.7188L51.8362 38.3953L50.9906 38.3107L49.2148 37.2115Z" fill="#F2F6FF"/>
<path d="M19.2803 14.4646L18.0118 13.2808L19.2803 14.0418L20.9715 16.2404L17.4199 13.7036L19.2803 14.4646Z" fill="#F2F6FF"/>
<path d="M44.7331 28.7554L44.8176 28.8188M44.8176 28.8188L46.086 29.7701L45.325 28.8399L44.8176 28.8188ZM39.9976 28.6708L40.8433 28.9245L41.4352 29.8547L41.6889 30.7003L42.8727 32.8989L43.3801 34.6746L43.6338 36.2813L44.2257 37.8034L43.211 36.1967L42.8727 34.6746L42.4499 32.9834L41.6889 31.7996L41.1815 30.4466L41.0124 29.7701L39.9976 28.6708ZM44.1411 38.5644L45.7478 41.9469L43.972 40.3402L47.439 44.3146L46.0015 41.7777L44.1411 38.5644ZM44.8176 34.8438L46.086 36.1967L45.8323 35.182L46.5088 35.6048L45.7478 34.5901L44.7331 33.9136L45.325 34.8438H44.8176ZM46.7625 37.5497L47.6927 38.9027L47.2699 37.8879L47.7772 37.9725L46.8471 37.2115H46.6779L46.7625 37.5497ZM50.9905 41.8623L51.8362 42.3697L51.1597 41.5241L50.8214 41.4395L50.9905 41.8623ZM48.1155 44.23L48.2846 44.6528H48.5383L48.1155 44.23ZM50.8214 33.3217L54.0347 35.6048L50.9905 32.7297L51.3288 33.4062L50.8214 33.3217ZM43.8874 27.6561L45.7478 28.9245L48.7074 31.1231L45.5787 28.5017L43.8874 27.6561ZM43.5492 26.0494L45.325 26.8105H46.0015L45.2404 26.4722L42.9573 25.6266L43.5492 26.0494ZM47.3544 27.1487L47.8618 27.0642L48.8765 26.0494L47.8618 26.6414L46.9316 27.0642L47.3544 27.1487ZM38.7292 24.9501L38.8138 25.373H39.3212V25.1193L38.8138 24.9501H38.7292ZM41.5197 33.9136L41.6043 35.2666L41.7734 34.6746L42.0271 34.421V33.9981L41.5197 33.9136ZM41.3506 37.5497L41.2661 38.4799L41.6889 38.9872L41.3506 37.5497ZM47.3544 34.9283L47.7772 35.182V34.9283H47.3544ZM48.0309 35.6048L49.2148 37.2115L50.9905 38.3107L51.8362 38.3953L50.5677 37.7188L49.3839 36.8732L48.0309 35.6048ZM18.0118 13.2808L19.2803 14.4646L17.4199 13.7036L20.9715 16.2404L19.2803 14.0418L18.0118 13.2808Z" stroke="#F2F6FF" stroke-width="0.169122"/>
<path d="M16.4048 0.596456L16.743 0.342773L17.6732 0.596456H18.6034L18.7725 1.18838L18.2651 1.27294L18.1806 1.78031L16.4048 0.596456Z" fill="#E4C9D8"/>
<path d="M16.4048 0.596456L16.743 0.342773L17.6732 0.596456H18.6034L18.7725 1.18838L18.2651 1.27294L18.1806 1.78031L16.4048 0.596456Z" fill="url(#paint7_linear_191_61)" fill-opacity="0.2"/>
<path d="M18.096 3.21784L19.0262 2.79504V4.40169L18.4342 5.41642L18.3497 6.09291L17.4195 5.58554V4.99362L18.2651 4.90905L18.7725 4.31713L18.6879 3.64064L18.5188 4.14801L18.096 3.21784Z" fill="#E4C9D8"/>
<path d="M18.096 3.21784L19.0262 2.79504V4.40169L18.4342 5.41642L18.3497 6.09291L17.4195 5.58554V4.99362L18.2651 4.90905L18.7725 4.31713L18.6879 3.64064L18.5188 4.14801L18.096 3.21784Z" fill="url(#paint8_linear_191_61)" fill-opacity="0.2"/>
<path d="M6.00381 14.7181L7.35679 14.8027L7.18766 15.0563L6.2575 15.1409L5.32733 15.6483L4.7354 15.7328L4.05892 15.9865L4.39716 15.31H5.15821L6.00381 14.7181Z" fill="#E4C9D8"/>
<path d="M6.00381 14.7181L7.35679 14.8027L7.18766 15.0563L6.2575 15.1409L5.32733 15.6483L4.7354 15.7328L4.05892 15.9865L4.39716 15.31H5.15821L6.00381 14.7181Z" fill="url(#paint9_linear_191_61)" fill-opacity="0.2"/>
<path d="M0.253682 14.8027L0 13.6188L1.52209 11.7585L0.422804 13.7034L0.253682 14.8027Z" fill="#E4C9D8"/>
<path d="M0.253682 14.8027L0 13.6188L1.52209 11.7585L0.422804 13.7034L0.253682 14.8027Z" fill="url(#paint10_linear_191_61)" fill-opacity="0.2"/>
<path d="M0.845608 15.8174L0.854381 15.8237L1.18385 15.902L1.9449 16.1556L3.38243 15.9865L2.28314 16.2402H1.43753L0.854381 15.8237L0.82801 15.8174H0.845608Z" fill="#E4C9D8"/>
<path d="M0.845608 15.8174L0.854381 15.8237L1.18385 15.902L1.9449 16.1556L3.38243 15.9865L2.28314 16.2402H1.43753L0.854381 15.8237L0.82801 15.8174H0.845608Z" fill="url(#paint11_linear_191_61)" fill-opacity="0.2"/>
<path d="M1.09929 2.11855L0.845608 2.71047L0.591925 2.8796L0.676486 3.47152L0.761047 4.06345L0.845608 5.2473L0.507365 3.64064L0.422804 2.71047L0.507365 2.11855H0.803327L1.69122 1.86487L3.21331 2.28767L1.09929 2.11855Z" fill="#E4C9D8"/>
<path d="M1.09929 2.11855L0.845608 2.71047L0.591925 2.8796L0.676486 3.47152L0.761047 4.06345L0.845608 5.2473L0.507365 3.64064L0.422804 2.71047L0.507365 2.11855H0.803327L1.69122 1.86487L3.21331 2.28767L1.09929 2.11855Z" fill="url(#paint12_linear_191_61)" fill-opacity="0.2"/>
<path d="M48.1164 30.4465L45.8333 28.3325L46.3407 28.5862L47.8628 28.3325L49.0466 27.7406L50.6533 26.2185L51.2452 24.781L51.1606 24.189L51.668 23.3434L51.4989 22.6669L50.8224 21.2294L50.1459 20.2147L49.1312 17.7624L48.3701 16.2403L47.6936 15.9021L46.3407 15.9866L45.9179 16.2403H44.9877L44.0575 16.3249L43.2119 17.0014L43.7193 16.3249L44.3958 16.0712L45.4105 15.8175L46.2561 15.4793L46.7635 15.2256H47.9473L48.201 15.3947L49.0466 16.0712L50.4841 17.5087L51.4989 18.8617L52.3445 19.7919L53.1901 21.314L53.6129 21.8213V22.3287L53.2746 23.3434L53.6129 23.428L54.1203 25.542L53.8666 26.9795L52.5982 28.8399L50.5687 30.1928L48.1164 30.4465Z" fill="#CBC6CC"/>
<path d="M48.1164 30.4465L45.8333 28.3325L46.3407 28.5862L47.8628 28.3325L49.0466 27.7406L50.6533 26.2185L51.2452 24.781L51.1606 24.189L51.668 23.3434L51.4989 22.6669L50.8224 21.2294L50.1459 20.2147L49.1312 17.7624L48.3701 16.2403L47.6936 15.9021L46.3407 15.9866L45.9179 16.2403H44.9877L44.0575 16.3249L43.2119 17.0014L43.7193 16.3249L44.3958 16.0712L45.4105 15.8175L46.2561 15.4793L46.7635 15.2256H47.9473L48.201 15.3947L49.0466 16.0712L50.4841 17.5087L51.4989 18.8617L52.3445 19.7919L53.1901 21.314L53.6129 21.8213V22.3287L53.2746 23.3434L53.6129 23.428L54.1203 25.542L53.8666 26.9795L52.5982 28.8399L50.5687 30.1928L48.1164 30.4465Z" fill="url(#paint13_linear_191_61)" fill-opacity="0.8"/>
<path d="M53.5283 34.5054L52.1754 32.9833H52.5136V32.7297H53.021V33.1525L53.4438 33.237V32.8142L53.6974 32.7297L53.8666 33.0679L55.2195 33.4062L56.488 33.4907L57.8409 33.829L57.6718 33.9981L55.8115 34.0826L53.5283 34.5054Z" fill="#CBC6CC"/>
<path d="M53.5283 34.5054L52.1754 32.9833H52.5136V32.7297H53.021V33.1525L53.4438 33.237V32.8142L53.6974 32.7297L53.8666 33.0679L55.2195 33.4062L56.488 33.4907L57.8409 33.829L57.6718 33.9981L55.8115 34.0826L53.5283 34.5054Z" fill="url(#paint14_linear_191_61)" fill-opacity="0.8"/>
<path d="M58.9402 35.5202L56.8262 34.8437L57.7564 34.7591H58.0946L58.4329 34.1672L58.7711 33.9981L58.8557 34.3363L59.1093 34.9282L59.4899 35.5202H60.0395L60.716 35.0853L61.2234 34.2518V33.7444L60.8006 34.2518L60.0395 34.7591L59.7858 34.59L59.5321 33.829L59.8704 33.5753L60.716 33.4907L61.2234 33.4062L61.6462 32.8142L62.3226 32.1377L62.4072 30.9539L63.3374 30.0237L62.6609 30.9539V31.9686L62.4918 32.5605L62.069 32.9833L61.7307 33.7444L61.2234 34.7591L60.716 35.0853L60.0395 35.5202H59.4899H58.9402Z" fill="#CBC6CC"/>
<path d="M58.9402 35.5202L56.8262 34.8437L57.7564 34.7591H58.0946L58.4329 34.1672L58.7711 33.9981L58.8557 34.3363L59.1093 34.9282L59.4899 35.5202H60.0395L60.716 35.0853L61.2234 34.2518V33.7444L60.8006 34.2518L60.0395 34.7591L59.7858 34.59L59.5321 33.829L59.8704 33.5753L60.716 33.4907L61.2234 33.4062L61.6462 32.8142L62.3226 32.1377L62.4072 30.9539L63.3374 30.0237L62.6609 30.9539V31.9686L62.4918 32.5605L62.069 32.9833L61.7307 33.7444L61.2234 34.7591L60.716 35.0853L60.0395 35.5202H59.4899H58.9402Z" fill="url(#paint15_linear_191_61)" fill-opacity="0.8"/>
<path d="M50.3996 35.2665H51.668H51.7526L50.9915 34.59L48.3701 32.476L46.1715 31.0384L43.2965 28.7553L44.3958 29.8546L45.7487 31.4613L48.2856 34.59L48.5392 34.7591L50.3996 35.2665Z" fill="#CBC6CC"/>
<path d="M50.3996 35.2665H51.668H51.7526L50.9915 34.59L48.3701 32.476L46.1715 31.0384L43.2965 28.7553L44.3958 29.8546L45.7487 31.4613L48.2856 34.59L48.5392 34.7591L50.3996 35.2665Z" fill="url(#paint16_linear_191_61)" fill-opacity="0.8"/>
<path d="M37.7988 29.6008L38.2216 29.6854L38.6867 29.474L38.729 28.9243L39.1518 29.178L39.6592 29.5162L39.7437 30.0236L38.8981 30.1927L39.9128 30.7001L40.5893 31.7148L40.082 31.1229L38.8136 30.3618L37.7988 29.6008Z" fill="#656067"/>
<path d="M39.1518 29.2626L38.6867 29.474M38.6867 29.474L38.2216 29.6854L37.7988 29.6008L38.8136 30.3618L40.082 31.1229L40.5893 31.7148L39.9128 30.7001L38.8981 30.1927L39.7437 30.0236L39.6592 29.5162L39.1518 29.178L38.729 28.9243L38.6867 29.474Z" stroke="#656067" stroke-width="0.169122"/>
<circle cx="37.3765" cy="28.1631" r="0.930169" fill="black"/>
<circle cx="40.5893" cy="23.5967" r="0.930169" fill="black"/>
<circle cx="40.5898" cy="24.1044" r="0.253813" fill="#D9D9D9"/>
<circle cx="40.5044" cy="23.1744" r="0.338418" fill="white"/>
<circle cx="37.2915" cy="27.7403" r="0.338418" fill="white"/>
<circle cx="37.3759" cy="28.6708" r="0.253813" fill="#D9D9D9"/>
<defs>
<linearGradient id="paint0_linear_191_61" x1="5.58138" y1="11.7583" x2="8.28732" y2="5.75446" gradientUnits="userSpaceOnUse">
<stop stop-color="#DDE0EF"/>
<stop offset="1" stop-color="#DABBCD"/>
</linearGradient>
<linearGradient id="paint1_linear_191_61" x1="23.2536" y1="0.680751" x2="15.9814" y2="19.1996" gradientUnits="userSpaceOnUse">
<stop stop-color="#D9ADC0"/>
<stop offset="1" stop-color="#DDE0EF"/>
</linearGradient>
<linearGradient id="paint2_linear_191_61" x1="23.2536" y1="0.680751" x2="15.9814" y2="19.1996" gradientUnits="userSpaceOnUse">
<stop stop-color="#D9ADC0"/>
<stop offset="1" stop-color="#DDE0EF"/>
</linearGradient>
<linearGradient id="paint3_linear_191_61" x1="23.2536" y1="0.680751" x2="15.9814" y2="19.1996" gradientUnits="userSpaceOnUse">
<stop stop-color="#D9ADC0"/>
<stop offset="1" stop-color="#DDE0EF"/>
</linearGradient>
<linearGradient id="paint4_linear_191_61" x1="18.7735" y1="13.9566" x2="13.7844" y2="24.6113" gradientUnits="userSpaceOnUse">
<stop stop-color="#DABDCF" stop-opacity="0"/>
<stop offset="1" stop-color="#DABDCF"/>
</linearGradient>
<linearGradient id="paint5_linear_191_61" x1="37.7994" y1="27.4866" x2="33.4868" y2="26.3873" gradientUnits="userSpaceOnUse">
<stop stop-color="#DDE0EF"/>
<stop offset="1" stop-color="#918080"/>
</linearGradient>
<linearGradient id="paint6_linear_191_61" x1="41.0138" y1="24.527" x2="35.9401" y2="22.0747" gradientUnits="userSpaceOnUse">
<stop stop-color="#DDE0EF"/>
<stop offset="1" stop-color="#938283"/>
</linearGradient>
<linearGradient id="paint7_linear_191_61" x1="9.51309" y1="0.342773" x2="9.55537" y2="18.6925" gradientUnits="userSpaceOnUse">
<stop stop-opacity="0"/>
<stop offset="1" stop-color="#7E3661"/>
</linearGradient>
<linearGradient id="paint8_linear_191_61" x1="9.51309" y1="0.342773" x2="9.55537" y2="18.6925" gradientUnits="userSpaceOnUse">
<stop stop-opacity="0"/>
<stop offset="1" stop-color="#7E3661"/>
</linearGradient>
<linearGradient id="paint9_linear_191_61" x1="9.51309" y1="0.342773" x2="9.55537" y2="18.6925" gradientUnits="userSpaceOnUse">
<stop stop-opacity="0"/>
<stop offset="1" stop-color="#7E3661"/>
</linearGradient>
<linearGradient id="paint10_linear_191_61" x1="9.51309" y1="0.342773" x2="9.55537" y2="18.6925" gradientUnits="userSpaceOnUse">
<stop stop-opacity="0"/>
<stop offset="1" stop-color="#7E3661"/>
</linearGradient>
<linearGradient id="paint11_linear_191_61" x1="9.51309" y1="0.342773" x2="9.55537" y2="18.6925" gradientUnits="userSpaceOnUse">
<stop stop-opacity="0"/>
<stop offset="1" stop-color="#7E3661"/>
</linearGradient>
<linearGradient id="paint12_linear_191_61" x1="9.51309" y1="0.342773" x2="9.55537" y2="18.6925" gradientUnits="userSpaceOnUse">
<stop stop-opacity="0"/>
<stop offset="1" stop-color="#7E3661"/>
</linearGradient>
<linearGradient id="paint13_linear_191_61" x1="46.2561" y1="27.8251" x2="54.4585" y2="18.4389" gradientUnits="userSpaceOnUse">
<stop stop-color="#826E6D"/>
<stop offset="1" stop-color="#DABCCE"/>
</linearGradient>
<linearGradient id="paint14_linear_191_61" x1="46.2561" y1="27.8251" x2="54.4585" y2="18.4389" gradientUnits="userSpaceOnUse">
<stop stop-color="#826E6D"/>
<stop offset="1" stop-color="#DABCCE"/>
</linearGradient>
<linearGradient id="paint15_linear_191_61" x1="46.2561" y1="27.8251" x2="54.4585" y2="18.4389" gradientUnits="userSpaceOnUse">
<stop stop-color="#826E6D"/>
<stop offset="1" stop-color="#DABCCE"/>
</linearGradient>
<linearGradient id="paint16_linear_191_61" x1="46.2561" y1="27.8251" x2="54.4585" y2="18.4389" gradientUnits="userSpaceOnUse">
<stop stop-color="#826E6D"/>
<stop offset="1" stop-color="#DABCCE"/>
</linearGradient>
</defs>
</svg>
